# xmcd
#
# Track frame offsets:
#	150
#	14476
#	30923
#	46276
#	59568
#	71880
#	86194
#	99914
#	110663
#	122640
#	136895
#	152868
#	166902
#
# Disc length: 2429 seconds
#
# Revision: 1
# Processed by: cddbd v1.5.2PL0 Copyright (c) Steve Scherf et al.
# Submitted via: audiograbber 1.83.01
#
DISCID=ae097b0d
DTITLE=Various Artist - So schön kann nur Volksmusik sein! CD 1/3
DYEAR=2005
DGENRE=Volksmusik
TTITLE0=Die Schäfer - Jetzt kommen die lustigen Tage (Potpourri)
TTITLE1=Gschwandtner - Das ist ein Sommer
TTITLE2=Walter Scholz - Sehnsuchtsmelodie
TTITLE3=Geraldine Olivier - Melodien für Euch
TTITLE4=Die jungen Original Oberkrainer - Das Glück bleibt immer jung
TTITLE5=AlpenRebellen - Herzklopfenzeit
TTITLE6=Die Stoakogler - Das Urgestein der Volksmusik
TTITLE7=Takeo Ischi - Der Liebes-Jodler
TTITLE8=Michael Klostermann and Stefanie Hertel - Bayrische Polka
TTITLE9=Stefan Mross and Stefanie Hertel - Ein Lied für jeden Sonnenstrahl
TTITLE10=Angela Wiedl - Spiel nochmal das kleine Lied
TTITLE11=Michaela Christ - Er schenkte mir das Alpenglühn
TTITLE12=Marianne and Michael - Seid's nett zueinander
EXTD=
EXTT0=
EXTT1=
EXTT2=
EXTT3=
EXTT4=
EXTT5=
EXTT6=
EXTT7=
EXTT8=
EXTT9=
EXTT10=
EXTT11=
EXTT12=
PLAYORDER=
